<svg xmlns="http://www.w3.org/2000/svg" width="805" height="600"><rect width="805" height="600" x="0" y="0" fill="#fcfbf6" id="backgorund"/><g transform="translate(90,20)" id="viz"><g id="axis"><g transform="translate(0,530)" fill="none" font-size="10" font-family="sans-serif" text-anchor="middle"><path class="domain" stroke="currentColor" d="M0,6V0H665V6"/><g class="tick" opacity="1" transform="translate(0,0)"><line stroke="currentColor" y2="6"/><text fill="currentColor" y="9" dy="0.71em">1,910</text></g><g class="tick" opacity="1" transform="translate(47.5,0)"><line stroke="currentColor" y2="6"/><text fill="currentColor" y="9" dy="0.71em">1,911</text></g><g class="tick" opacity="1" transform="translate(95,0)"><line stroke="currentColor" y2="6"/><text fill="currentColor" y="9" dy="0.71em">1,912</text></g><g class="tick" opacity="1" transform="translate(142.5,0)"><line stroke="currentColor" y2="6"/><text fill="currentColor" y="9" dy="0.71em">1,913</text></g><g class="tick" opacity="1" transform="translate(190,0)"><line stroke="currentColor" y2="6"/><text fill="currentColor" y="9" dy="0.71em">1,914</text></g><g class="tick" opacity="1" transform="translate(237.5,0)"><line stroke="currentColor" y2="6"/><text fill="currentColor" y="9" dy="0.71em">1,915</text></g><g class="tick" opacity="1" transform="translate(285,0)"><line stroke="currentColor" y2="6"/><text fill="currentColor" y="9" dy="0.71em">1,916</text></g><g class="tick" opacity="1" transform="translate(332.5,0)"><line stroke="currentColor" y2="6"/><text fill="currentColor" y="9" dy="0.71em">1,917</text></g><g class="tick" opacity="1" transform="translate(380,0)"><line stroke="currentColor" y2="6"/><text fill="currentColor" y="9" dy="0.71em">1,918</text></g><g class="tick" opacity="1" transform="translate(427.50000000000006,0)"><line stroke="currentColor" y2="6"/><text fill="currentColor" y="9" dy="0.71em">1,919</text></g><g class="tick" opacity="1" transform="translate(475,0)"><line stroke="currentColor" y2="6"/><text fill="currentColor" y="9" dy="0.71em">1,920</text></g><g class="tick" opacity="1" transform="translate(522.5,0)"><line stroke="currentColor" y2="6"/><text fill="currentColor" y="9" dy="0.71em">1,921</text></g><g class="tick" opacity="1" transform="translate(570,0)"><line stroke="currentColor" y2="6"/><text fill="currentColor" y="9" dy="0.71em">1,922</text></g><g class="tick" opacity="1" transform="translate(617.5,0)"><line stroke="currentColor" y2="6"/><text fill="currentColor" y="9" dy="0.71em">1,923</text></g><g class="tick" opacity="1" transform="translate(665,0)"><line stroke="currentColor" y2="6"/><text fill="currentColor" y="9" dy="0.71em">1,924</text></g><text x="665" dy="-5" text-anchor="end" style="font-family: Arial, sans-serif; font-size: 12px; fill: rgb(123, 123, 123); font-weight: bold;">year</text></g><g fill="none" font-size="10" font-family="sans-serif" text-anchor="end"><path class="domain" stroke="currentColor" d="M0,0V530"/><g class="tick" opacity="1" transform="translate(0,27)"><line stroke="currentColor" x2="665" style="stroke: rgb(204, 204, 204);"/><text fill="currentColor" x="-3" dy="0.32em">Ballet_(music)</text></g><g class="tick" opacity="1" transform="translate(0,80)"><line stroke="currentColor" x2="665" style="stroke: rgb(204, 204, 204);"/><text fill="currentColor" x="-3" dy="0.32em">Classical_music</text></g><g class="tick" opacity="1" transform="translate(0,133)"><line stroke="currentColor" x2="665" style="stroke: rgb(204, 204, 204);"/><text fill="currentColor" x="-3" dy="0.32em">Opera</text></g><g class="tick" opacity="1" transform="translate(0,186)"><line stroke="currentColor" x2="665" style="stroke: rgb(204, 204, 204);"/><text fill="currentColor" x="-3" dy="0.32em">Romantic_music</text></g><g class="tick" opacity="1" transform="translate(0,239)"><line stroke="currentColor" x2="665" style="stroke: rgb(204, 204, 204);"/><text fill="currentColor" x="-3" dy="0.32em">Jazz</text></g><g class="tick" opacity="1" transform="translate(0,292)"><line stroke="currentColor" x2="665" style="stroke: rgb(204, 204, 204);"/><text fill="currentColor" x="-3" dy="0.32em">Popular_music</text></g><g class="tick" opacity="1" transform="translate(0,345)"><line stroke="currentColor" x2="665" style="stroke: rgb(204, 204, 204);"/><text fill="currentColor" x="-3" dy="0.32em">Christmas_carol</text></g><g class="tick" opacity="1" transform="translate(0,398)"><line stroke="currentColor" x2="665" style="stroke: rgb(204, 204, 204);"/><text fill="currentColor" x="-3" dy="0.32em">Hymn</text></g><g class="tick" opacity="1" transform="translate(0,451)"><line stroke="currentColor" x2="665" style="stroke: rgb(204, 204, 204);"/><text fill="currentColor" x="-3" dy="0.32em">National_anthem</text></g><g class="tick" opacity="1" transform="translate(0,504)"><line stroke="currentColor" x2="665" style="stroke: rgb(204, 204, 204);"/><text fill="currentColor" x="-3" dy="0.32em">Blues</text></g><text x="4" text-anchor="start" dominant-baseline="hanging" style="font-family: Arial, sans-serif; font-size: 12px; fill: rgb(123, 123, 123); font-weight: bold;">genre_label</text></g></g><g id="visualization"><g id="Ballet_(music)"><g id="circles"><circle id="" cx="0" cy="26.5" r="4.809581275419405" style="fill: rgb(31, 119, 180);"/><circle id="" cx="190" cy="26.5" r="3.589734833751576" style="fill: rgb(31, 119, 180);"/><circle id="" cx="475" cy="26.5" r="5.837959396219992" style="fill: rgb(31, 119, 180);"/><circle id="" cx="522.5" cy="26.5" r="3.589734833751576" style="fill: rgb(31, 119, 180);"/><circle id="" cx="617.5" cy="26.5" r="4.809581275419405" style="fill: rgb(31, 119, 180);"/><circle id="" cx="665" cy="26.5" r="7.563082778039196" style="fill: rgb(31, 119, 180);"/></g><g id="labels"><g id="" transform="translate(0,26.5)"><text x="0" y="0" text-anchor="middle" dominant-baseline="text-before-edge" transform="translate(0,0)"/></g><g id="" transform="translate(190,26.5)"><text x="0" y="0" text-anchor="middle" dominant-baseline="text-before-edge" transform="translate(0,0)"/></g><g id="" transform="translate(475,26.5)"><text x="0" y="0" text-anchor="middle" dominant-baseline="text-before-edge" transform="translate(0,0)"/></g><g id="" transform="translate(522.5,26.5)"><text x="0" y="0" text-anchor="middle" dominant-baseline="text-before-edge" transform="translate(0,0)"/></g><g id="" transform="translate(617.5,26.5)"><text x="0" y="0" text-anchor="middle" dominant-baseline="text-before-edge" transform="translate(0,0)"/></g><g id="" transform="translate(665,26.5)"><text x="0" y="0" text-anchor="middle" dominant-baseline="text-before-edge" transform="translate(0,0)"/></g></g></g><g id="Classical_music"><g id="circles"><circle id="" cx="0" cy="79.5" r="4.809581275419405" style="fill: rgb(214, 39, 40);"/><circle id="" cx="47.5" cy="79.5" r="5.837959396219992" style="fill: rgb(214, 39, 40);"/><circle id="" cx="95" cy="79.5" r="4.809581275419405" style="fill: rgb(214, 39, 40);"/><circle id="" cx="190" cy="79.5" r="3.589734833751576" style="fill: rgb(214, 39, 40);"/><circle id="" cx="237.5" cy="79.5" r="7.563082778039196" style="fill: rgb(214, 39, 40);"/><circle id="" cx="285" cy="79.5" r="4.809581275419405" style="fill: rgb(214, 39, 40);"/><circle id="" cx="332.5" cy="79.5" r="7.563082778039196" style="fill: rgb(214, 39, 40);"/><circle id="" cx="380" cy="79.5" r="5.837959396219992" style="fill: rgb(214, 39, 40);"/><circle id="" cx="427.50000000000006" cy="79.5" r="3.589734833751576" style="fill: rgb(214, 39, 40);"/><circle id="" cx="475" cy="79.5" r="4.809581275419405" style="fill: rgb(214, 39, 40);"/><circle id="" cx="522.5" cy="79.5" r="5.837959396219992" style="fill: rgb(214, 39, 40);"/><circle id="" cx="570" cy="79.5" r="4.809581275419405" style="fill: rgb(214, 39, 40);"/><circle id="" cx="617.5" cy="79.5" r="10.298733863079809" style="fill: rgb(214, 39, 40);"/><circle id="" cx="665" cy="79.5" r="12" style="fill: rgb(214, 39, 40);"/></g><g id="labels"><g id="" transform="translate(0,79.5)"><text x="0" y="0" text-anchor="middle" dominant-baseline="text-before-edge" transform="translate(0,0)"/></g><g id="" transform="translate(47.5,79.5)"><text x="0" y="0" text-anchor="middle" dominant-baseline="text-before-edge" transform="translate(0,0)"/></g><g id="" transform="translate(95,79.5)"><text x="0" y="0" text-anchor="middle" dominant-baseline="text-before-edge" transform="translate(0,0)"/></g><g id="" transform="translate(190,79.5)"><text x="0" y="0" text-anchor="middle" dominant-baseline="text-before-edge" transform="translate(0,0)"/></g><g id="" transform="translate(237.5,79.5)"><text x="0" y="0" text-anchor="middle" dominant-baseline="text-before-edge" transform="translate(0,0)"/></g><g id="" transform="translate(285,79.5)"><text x="0" y="0" text-anchor="middle" dominant-baseline="text-before-edge" transform="translate(0,0)"/></g><g id="" transform="translate(332.5,79.5)"><text x="0" y="0" text-anchor="middle" dominant-baseline="text-before-edge" transform="translate(0,0)"/></g><g id="" transform="translate(380,79.5)"><text x="0" y="0" text-anchor="middle" dominant-baseline="text-before-edge" transform="translate(0,0)"/></g><g id="" transform="translate(427.50000000000006,79.5)"><text x="0" y="0" text-anchor="middle" dominant-baseline="text-before-edge" transform="translate(0,0)"/></g><g id="" transform="translate(475,79.5)"><text x="0" y="0" text-anchor="middle" dominant-baseline="text-before-edge" transform="translate(0,0)"/></g><g id="" transform="translate(522.5,79.5)"><text x="0" y="0" text-anchor="middle" dominant-baseline="text-before-edge" transform="translate(0,0)"/></g><g id="" transform="translate(570,79.5)"><text x="0" y="0" text-anchor="middle" dominant-baseline="text-before-edge" transform="translate(0,0)"/></g><g id="" transform="translate(617.5,79.5)"><text x="0" y="0" text-anchor="middle" dominant-baseline="text-before-edge" transform="translate(0,0)"/></g><g id="" transform="translate(665,79.5)"><text x="0" y="0" text-anchor="middle" dominant-baseline="text-before-edge" transform="translate(0,0)"/></g></g></g><g id="Opera"><g id="circles"><circle id="" cx="0" cy="132.5" r="3.589734833751576" style="fill: rgb(127, 127, 127);"/><circle id="" cx="190" cy="132.5" r="3.589734833751576" style="fill: rgb(127, 127, 127);"/><circle id="" cx="237.5" cy="132.5" r="2" style="fill: rgb(127, 127, 127);"/><circle id="" cx="285" cy="132.5" r="2" style="fill: rgb(127, 127, 127);"/><circle id="" cx="332.5" cy="132.5" r="3.589734833751576" style="fill: rgb(127, 127, 127);"/><circle id="" cx="380" cy="132.5" r="2" style="fill: rgb(127, 127, 127);"/><circle id="" cx="475" cy="132.5" r="2" style="fill: rgb(127, 127, 127);"/><circle id="" cx="570" cy="132.5" r="5.837959396219992" style="fill: rgb(127, 127, 127);"/><circle id="" cx="617.5" cy="132.5" r="2" style="fill: rgb(127, 127, 127);"/><circle id="" cx="665" cy="132.5" r="5.837959396219992" style="fill: rgb(127, 127, 127);"/></g><g id="labels"><g id="" transform="translate(0,132.5)"><text x="0" y="0" text-anchor="middle" dominant-baseline="text-before-edge" transform="translate(0,0)"/></g><g id="" transform="translate(190,132.5)"><text x="0" y="0" text-anchor="middle" dominant-baseline="text-before-edge" transform="translate(0,0)"/></g><g id="" transform="translate(237.5,132.5)"><text x="0" y="0" text-anchor="middle" dominant-baseline="text-before-edge" transform="translate(0,0)"/></g><g id="" transform="translate(285,132.5)"><text x="0" y="0" text-anchor="middle" dominant-baseline="text-before-edge" transform="translate(0,0)"/></g><g id="" transform="translate(332.5,132.5)"><text x="0" y="0" text-anchor="middle" dominant-baseline="text-before-edge" transform="translate(0,0)"/></g><g id="" transform="translate(380,132.5)"><text x="0" y="0" text-anchor="middle" dominant-baseline="text-before-edge" transform="translate(0,0)"/></g><g id="" transform="translate(475,132.5)"><text x="0" y="0" text-anchor="middle" dominant-baseline="text-before-edge" transform="translate(0,0)"/></g><g id="" transform="translate(570,132.5)"><text x="0" y="0" text-anchor="middle" dominant-baseline="text-before-edge" transform="translate(0,0)"/></g><g id="" transform="translate(617.5,132.5)"><text x="0" y="0" text-anchor="middle" dominant-baseline="text-before-edge" transform="translate(0,0)"/></g><g id="" transform="translate(665,132.5)"><text x="0" y="0" text-anchor="middle" dominant-baseline="text-before-edge" transform="translate(0,0)"/></g></g></g><g id="Romantic_music"><g id="circles"><circle id="" cx="0" cy="185.5" r="5.837959396219992" style="fill: rgb(23, 190, 207);"/><circle id="" cx="47.5" cy="185.5" r="2" style="fill: rgb(23, 190, 207);"/><circle id="" cx="665" cy="185.5" r="3.589734833751576" style="fill: rgb(23, 190, 207);"/></g><g id="labels"><g id="" transform="translate(0,185.5)"><text x="0" y="0" text-anchor="middle" dominant-baseline="text-before-edge" transform="translate(0,0)"/></g><g id="" transform="translate(47.5,185.5)"><text x="0" y="0" text-anchor="middle" dominant-baseline="text-before-edge" transform="translate(0,0)"/></g><g id="" transform="translate(665,185.5)"><text x="0" y="0" text-anchor="middle" dominant-baseline="text-before-edge" transform="translate(0,0)"/></g></g></g><g id="Jazz"><g id="circles"><circle id="" cx="47.5" cy="238.5" r="2" style="fill: rgb(140, 86, 75);"/><circle id="" cx="237.5" cy="238.5" r="2" style="fill: rgb(140, 86, 75);"/><circle id="" cx="285" cy="238.5" r="2" style="fill: rgb(140, 86, 75);"/><circle id="" cx="570" cy="238.5" r="3.589734833751576" style="fill: rgb(140, 86, 75);"/><circle id="" cx="617.5" cy="238.5" r="5.837959396219992" style="fill: rgb(140, 86, 75);"/></g><g id="labels"><g id="" transform="translate(47.5,238.5)"><text x="0" y="0" text-anchor="middle" dominant-baseline="text-before-edge" transform="translate(0,0)"/></g><g id="" transform="translate(237.5,238.5)"><text x="0" y="0" text-anchor="middle" dominant-baseline="text-before-edge" transform="translate(0,0)"/></g><g id="" transform="translate(285,238.5)"><text x="0" y="0" text-anchor="middle" dominant-baseline="text-before-edge" transform="translate(0,0)"/></g><g id="" transform="translate(570,238.5)"><text x="0" y="0" text-anchor="middle" dominant-baseline="text-before-edge" transform="translate(0,0)"/></g><g id="" transform="translate(617.5,238.5)"><text x="0" y="0" text-anchor="middle" dominant-baseline="text-before-edge" transform="translate(0,0)"/></g></g></g><g id="Popular_music"><g id="circles"><circle id="" cx="47.5" cy="291.5" r="2" style="fill: rgb(188, 189, 34);"/><circle id="" cx="95" cy="291.5" r="4.809581275419405" style="fill: rgb(188, 189, 34);"/><circle id="" cx="190" cy="291.5" r="6.74397870861196" style="fill: rgb(188, 189, 34);"/><circle id="" cx="237.5" cy="291.5" r="9.675918792439983" style="fill: rgb(188, 189, 34);"/><circle id="" cx="285" cy="291.5" r="8.316326708141716" style="fill: rgb(188, 189, 34);"/><circle id="" cx="332.5" cy="291.5" r="4.809581275419405" style="fill: rgb(188, 189, 34);"/><circle id="" cx="380" cy="291.5" r="6.74397870861196" style="fill: rgb(188, 189, 34);"/><circle id="" cx="427.50000000000006" cy="291.5" r="2" style="fill: rgb(188, 189, 34);"/><circle id="" cx="665" cy="291.5" r="2" style="fill: rgb(188, 189, 34);"/></g><g id="labels"><g id="" transform="translate(47.5,291.5)"><text x="0" y="0" text-anchor="middle" dominant-baseline="text-before-edge" transform="translate(0,0)"/></g><g id="" transform="translate(95,291.5)"><text x="0" y="0" text-anchor="middle" dominant-baseline="text-before-edge" transform="translate(0,0)"/></g><g id="" transform="translate(190,291.5)"><text x="0" y="0" text-anchor="middle" dominant-baseline="text-before-edge" transform="translate(0,0)"/></g><g id="" transform="translate(237.5,291.5)"><text x="0" y="0" text-anchor="middle" dominant-baseline="text-before-edge" transform="translate(0,0)"/></g><g id="" transform="translate(285,291.5)"><text x="0" y="0" text-anchor="middle" dominant-baseline="text-before-edge" transform="translate(0,0)"/></g><g id="" transform="translate(332.5,291.5)"><text x="0" y="0" text-anchor="middle" dominant-baseline="text-before-edge" transform="translate(0,0)"/></g><g id="" transform="translate(380,291.5)"><text x="0" y="0" text-anchor="middle" dominant-baseline="text-before-edge" transform="translate(0,0)"/></g><g id="" transform="translate(427.50000000000006,291.5)"><text x="0" y="0" text-anchor="middle" dominant-baseline="text-before-edge" transform="translate(0,0)"/></g><g id="" transform="translate(665,291.5)"><text x="0" y="0" text-anchor="middle" dominant-baseline="text-before-edge" transform="translate(0,0)"/></g></g></g><g id="Christmas_carol"><g id="circles"><circle id="" cx="95" cy="344.5" r="2" style="fill: rgb(44, 160, 44);"/><circle id="" cx="190" cy="344.5" r="2" style="fill: rgb(44, 160, 44);"/><circle id="" cx="237.5" cy="344.5" r="2" style="fill: rgb(44, 160, 44);"/><circle id="" cx="285" cy="344.5" r="3.589734833751576" style="fill: rgb(44, 160, 44);"/><circle id="" cx="332.5" cy="344.5" r="2" style="fill: rgb(44, 160, 44);"/></g><g id="labels"><g id="" transform="translate(95,344.5)"><text x="0" y="0" text-anchor="middle" dominant-baseline="text-before-edge" transform="translate(0,0)"/></g><g id="" transform="translate(190,344.5)"><text x="0" y="0" text-anchor="middle" dominant-baseline="text-before-edge" transform="translate(0,0)"/></g><g id="" transform="translate(237.5,344.5)"><text x="0" y="0" text-anchor="middle" dominant-baseline="text-before-edge" transform="translate(0,0)"/></g><g id="" transform="translate(285,344.5)"><text x="0" y="0" text-anchor="middle" dominant-baseline="text-before-edge" transform="translate(0,0)"/></g><g id="" transform="translate(332.5,344.5)"><text x="0" y="0" text-anchor="middle" dominant-baseline="text-before-edge" transform="translate(0,0)"/></g></g></g><g id="Hymn"><g id="circles"><circle id="" cx="190" cy="397.5" r="4.809581275419405" style="fill: rgb(148, 103, 189);"/><circle id="" cx="237.5" cy="397.5" r="8.316326708141716" style="fill: rgb(148, 103, 189);"/><circle id="" cx="332.5" cy="397.5" r="4.809581275419405" style="fill: rgb(148, 103, 189);"/><circle id="" cx="380" cy="397.5" r="3.589734833751576" style="fill: rgb(148, 103, 189);"/><circle id="" cx="427.50000000000006" cy="397.5" r="2" style="fill: rgb(148, 103, 189);"/></g><g id="labels"><g id="" transform="translate(190,397.5)"><text x="0" y="0" text-anchor="middle" dominant-baseline="text-before-edge" transform="translate(0,0)"/></g><g id="" transform="translate(237.5,397.5)"><text x="0" y="0" text-anchor="middle" dominant-baseline="text-before-edge" transform="translate(0,0)"/></g><g id="" transform="translate(332.5,397.5)"><text x="0" y="0" text-anchor="middle" dominant-baseline="text-before-edge" transform="translate(0,0)"/></g><g id="" transform="translate(380,397.5)"><text x="0" y="0" text-anchor="middle" dominant-baseline="text-before-edge" transform="translate(0,0)"/></g><g id="" transform="translate(427.50000000000006,397.5)"><text x="0" y="0" text-anchor="middle" dominant-baseline="text-before-edge" transform="translate(0,0)"/></g></g></g><g id="National_anthem"><g id="circles"><circle id="" cx="190" cy="450.5" r="5.837959396219992" style="fill: rgb(227, 119, 194);"/><circle id="" cx="237.5" cy="450.5" r="6.74397870861196" style="fill: rgb(227, 119, 194);"/><circle id="" cx="285" cy="450.5" r="3.589734833751576" style="fill: rgb(227, 119, 194);"/><circle id="" cx="332.5" cy="450.5" r="3.589734833751576" style="fill: rgb(227, 119, 194);"/><circle id="" cx="380" cy="450.5" r="7.563082778039196" style="fill: rgb(227, 119, 194);"/></g><g id="labels"><g id="" transform="translate(190,450.5)"><text x="0" y="0" text-anchor="middle" dominant-baseline="text-before-edge" transform="translate(0,0)"/></g><g id="" transform="translate(237.5,450.5)"><text x="0" y="0" text-anchor="middle" dominant-baseline="text-before-edge" transform="translate(0,0)"/></g><g id="" transform="translate(285,450.5)"><text x="0" y="0" text-anchor="middle" dominant-baseline="text-before-edge" transform="translate(0,0)"/></g><g id="" transform="translate(332.5,450.5)"><text x="0" y="0" text-anchor="middle" dominant-baseline="text-before-edge" transform="translate(0,0)"/></g><g id="" transform="translate(380,450.5)"><text x="0" y="0" text-anchor="middle" dominant-baseline="text-before-edge" transform="translate(0,0)"/></g></g></g><g id="Blues"><g id="circles"><circle id="" cx="237.5" cy="503.5" r="2" style="fill: rgb(255, 127, 14);"/><circle id="" cx="285" cy="503.5" r="2" style="fill: rgb(255, 127, 14);"/><circle id="" cx="332.5" cy="503.5" r="5.837959396219992" style="fill: rgb(255, 127, 14);"/><circle id="" cx="522.5" cy="503.5" r="3.589734833751576" style="fill: rgb(255, 127, 14);"/><circle id="" cx="617.5" cy="503.5" r="2" style="fill: rgb(255, 127, 14);"/><circle id="" cx="665" cy="503.5" r="2" style="fill: rgb(255, 127, 14);"/></g><g id="labels"><g id="" transform="translate(237.5,503.5)"><text x="0" y="0" text-anchor="middle" dominant-baseline="text-before-edge" transform="translate(0,0)"/></g><g id="" transform="translate(285,503.5)"><text x="0" y="0" text-anchor="middle" dominant-baseline="text-before-edge" transform="translate(0,0)"/></g><g id="" transform="translate(332.5,503.5)"><text x="0" y="0" text-anchor="middle" dominant-baseline="text-before-edge" transform="translate(0,0)"/></g><g id="" transform="translate(522.5,503.5)"><text x="0" y="0" text-anchor="middle" dominant-baseline="text-before-edge" transform="translate(0,0)"/></g><g id="" transform="translate(617.5,503.5)"><text x="0" y="0" text-anchor="middle" dominant-baseline="text-before-edge" transform="translate(0,0)"/></g><g id="" transform="translate(665,503.5)"><text x="0" y="0" text-anchor="middle" dominant-baseline="text-before-edge" transform="translate(0,0)"/></g></g></g></g></g></svg>