<svg xmlns="http://www.w3.org/2000/svg" width="805" height="650"><rect width="805" height="650" x="0" y="0" fill="#FFFFFF" id="backgorund"/><g transform="translate(30,20)" id="visualization"><g><rect x="0" y="7.5" height="4.957264957264954" width="5" fill="black"><title>'surprise': 1</title></rect><rect x="735" y="-1.1368683772161603e-13" height="9.914529914529908" width="5" fill="black"><title>Jazz: 2</title></rect><rect x="735" y="14.914529914529794" height="14.871794871794918" width="5" fill="black"><title>Blues: 3</title></rect><rect x="735" y="34.78632478632471" height="24.78632478632477" width="5" fill="black"><title>Ballet_(music): 5</title></rect><rect x="735" y="64.57264957264948" height="24.786324786324826" width="5" fill="black"><title>Opera: 5</title></rect><rect x="735" y="94.35897435897431" height="24.786324786324826" width="5" fill="black"><title>Christmas_carol: 5</title></rect><rect x="0" y="17.457264957264954" height="34.700854700854734" width="5" fill="black"><title>'sadness': 7</title></rect><rect x="0" y="57.15811965811969" height="44.615384615384585" width="5" fill="black"><title>'anger': 9</title></rect><rect x="0" y="106.77350427350427" height="44.615384615384585" width="5" fill="black"><title>'love': 9</title></rect><rect x="0" y="156.38888888888886" height="44.61538461538464" width="5" fill="black"><title>'fear': 9</title></rect><rect x="735" y="124.14529914529913" height="59.48717948717956" width="5" fill="black"><title>Hymn: 12</title></rect><rect x="735" y="188.6324786324787" height="89.23076923076923" width="5" fill="black"><title>National_anthem: 18</title></rect><rect x="735" y="282.8632478632479" height="153.67521367521374" width="5" fill="black"><title>Popular_music: 31</title></rect><rect x="735" y="441.53846153846166" height="178.46153846153845" width="5" fill="black"><title>Classical_music: 36</title></rect><rect x="0" y="206.0042735042735" height="406.4957264957265" width="5" fill="black"><title>'joy': 82</title></rect></g><g fill="none" stroke-opacity="0.9"><g style="mix-blend-mode: multiply;"><path d="M5,535.6623931623931C370,535.6623931623931,370,543.1623931623933,735,543.1623931623933" stroke="#2ca02c" stroke-width="153.67521367521368"/><title>'joy' → Classical_music: 31</title></g><g style="mix-blend-mode: multiply;"><path d="M5,89.38034188034189C370,89.38034188034189,370,295.25641025641033,735,295.25641025641033" stroke="#1f77b4" stroke-width="14.871794871794872"/><title>'anger' → Popular_music: 3</title></g><g style="mix-blend-mode: multiply;"><path d="M5,9.978632478632479C370,9.978632478632479,370,191.11111111111117,735,191.11111111111117" stroke="#8c564b" stroke-width="4.957264957264957"/><title>'surprise' → National_anthem: 1</title></g><g style="mix-blend-mode: multiply;"><path d="M5,134.03846153846152C370,134.03846153846152,370,315.08547008547015,735,315.08547008547015" stroke="#d62728" stroke-width="24.786324786324787"/><title>'love' → Popular_music: 5</title></g><g style="mix-blend-mode: multiply;"><path d="M5,47.20085470085469C370,47.20085470085469,370,446.4957264957266,735,446.4957264957266" stroke="#9467bd" stroke-width="9.914529914529915"/><title>'sadness' → Classical_music: 2</title></g><g style="mix-blend-mode: multiply;"><path d="M5,215.9188034188034C370,215.9188034188034,370,49.65811965811958,735,49.65811965811958" stroke="#2ca02c" stroke-width="19.82905982905983"/><title>'joy' → Ballet_(music): 4</title></g><g style="mix-blend-mode: multiply;"><path d="M5,148.9102564102564C370,148.9102564102564,370,458.888888888889,735,458.888888888889" stroke="#d62728" stroke-width="4.957264957264957"/><title>'love' → Classical_music: 1</title></g><g style="mix-blend-mode: multiply;"><path d="M5,409.2521367521367C370,409.2521367521367,370,386.965811965812,735,386.965811965812" stroke="#2ca02c" stroke-width="99.14529914529915"/><title>'joy' → Popular_music: 20</title></g><g style="mix-blend-mode: multiply;"><path d="M5,324.97863247863245C370,324.97863247863245,370,243.16239316239322,735,243.16239316239322" stroke="#2ca02c" stroke-width="69.40170940170941"/><title>'joy' → National_anthem: 14</title></g><g style="mix-blend-mode: multiply;"><path d="M5,275.40598290598285C370,275.40598290598285,370,168.76068376068372,735,168.76068376068372" stroke="#2ca02c" stroke-width="29.743589743589745"/><title>'joy' → Hymn: 6</title></g><g style="mix-blend-mode: multiply;"><path d="M5,24.89316239316239C370,24.89316239316239,370,131.58119658119656,735,131.58119658119656" stroke="#9467bd" stroke-width="14.871794871794872"/><title>'sadness' → Hymn: 3</title></g><g style="mix-blend-mode: multiply;"><path d="M5,233.26923076923075C370,233.26923076923075,370,81.92307692307682,735,81.92307692307682" stroke="#2ca02c" stroke-width="14.871794871794872"/><title>'joy' → Opera: 3</title></g><g style="mix-blend-mode: multiply;"><path d="M5,250.61965811965808C370,250.61965811965808,370,109.23076923076917,735,109.23076923076917" stroke="#2ca02c" stroke-width="19.82905982905983"/><title>'joy' → Christmas_carol: 4</title></g><g style="mix-blend-mode: multiply;"><path d="M5,191.08974358974353C370,191.08974358974353,370,332.43589743589746,735,332.43589743589746" stroke="#ff7f0e" stroke-width="9.914529914529915"/><title>'fear' → Popular_music: 2</title></g><g style="mix-blend-mode: multiply;"><path d="M5,76.9871794871795C370,76.9871794871795,370,143.97435897435895,735,143.97435897435895" stroke="#1f77b4" stroke-width="9.914529914529915"/><title>'anger' → Hymn: 2</title></g><g style="mix-blend-mode: multiply;"><path d="M5,158.86752136752133C370,158.86752136752133,370,7.435897435897322,735,7.435897435897322" stroke="#ff7f0e" stroke-width="4.957264957264957"/><title>'fear' → Jazz: 1</title></g><g style="mix-blend-mode: multiply;"><path d="M5,69.55128205128207C370,69.55128205128207,370,96.83760683760678,735,96.83760683760678" stroke="#1f77b4" stroke-width="4.957264957264957"/><title>'anger' → Christmas_carol: 1</title></g><g style="mix-blend-mode: multiply;"><path d="M5,109.25213675213675C370,109.25213675213675,370,37.26495726495719,735,37.26495726495719" stroke="#d62728" stroke-width="4.957264957264957"/><title>'love' → Ballet_(music): 1</title></g><g style="mix-blend-mode: multiply;"><path d="M5,176.21794871794867C370,176.21794871794867,370,69.52991452991444,735,69.52991452991444" stroke="#ff7f0e" stroke-width="9.914529914529915"/><title>'fear' → Opera: 2</title></g><g style="mix-blend-mode: multiply;"><path d="M5,59.636752136752165C370,59.636752136752165,370,2.478632478632365,735,2.478632478632365" stroke="#1f77b4" stroke-width="4.957264957264957"/><title>'anger' → Jazz: 1</title></g><g style="mix-blend-mode: multiply;"><path d="M5,99.29487179487181C370,99.29487179487181,370,453.9316239316241,735,453.9316239316241" stroke="#1f77b4" stroke-width="4.957264957264957"/><title>'anger' → Classical_music: 1</title></g><g style="mix-blend-mode: multiply;"><path d="M5,166.30341880341877C370,166.30341880341877,370,24.82905982905971,735,24.82905982905971" stroke="#ff7f0e" stroke-width="9.914529914529915"/><title>'fear' → Blues: 2</title></g><g style="mix-blend-mode: multiply;"><path d="M5,198.52564102564097C370,198.52564102564097,370,463.846153846154,735,463.846153846154" stroke="#ff7f0e" stroke-width="4.957264957264957"/><title>'fear' → Classical_music: 1</title></g><g style="mix-blend-mode: multiply;"><path d="M5,64.59401709401712C370,64.59401709401712,370,17.39316239316227,735,17.39316239316227" stroke="#1f77b4" stroke-width="4.957264957264957"/><title>'anger' → Blues: 1</title></g><g style="mix-blend-mode: multiply;"><path d="M5,183.6538461538461C370,183.6538461538461,370,151.41025641025638,735,151.41025641025638" stroke="#ff7f0e" stroke-width="4.957264957264957"/><title>'fear' → Hymn: 1</title></g><g style="mix-blend-mode: multiply;"><path d="M5,34.80769230769231C370,34.80769230769231,370,196.06837606837612,735,196.06837606837612" stroke="#9467bd" stroke-width="4.957264957264957"/><title>'sadness' → National_anthem: 1</title></g><g style="mix-blend-mode: multiply;"><path d="M5,116.68803418803418C370,116.68803418803418,370,203.50427350427356,735,203.50427350427356" stroke="#d62728" stroke-width="9.914529914529915"/><title>'love' → National_anthem: 2</title></g><g style="mix-blend-mode: multiply;"><path d="M5,39.76495726495726C370,39.76495726495726,370,285.3418803418804,735,285.3418803418804" stroke="#9467bd" stroke-width="4.957264957264957"/><title>'sadness' → Popular_music: 1</title></g></g><g><text x="9" y="9.978632478632477" text-anchor="start"><tspan alignment-baseline="middle" x="9" style="font-family: Arial, sans-serif; font-size: 10px; fill: black; font-weight: bold;">'surprise'</tspan></text><text x="731" y="4.95726495726484" text-anchor="end"><tspan alignment-baseline="middle" x="731" style="font-family: Arial, sans-serif; font-size: 10px; fill: black; font-weight: bold;">Jazz</tspan></text><text x="731" y="22.350427350427253" text-anchor="end"><tspan alignment-baseline="middle" x="731" style="font-family: Arial, sans-serif; font-size: 10px; fill: black; font-weight: bold;">Blues</tspan></text><text x="731" y="47.1794871794871" text-anchor="end"><tspan alignment-baseline="middle" x="731" style="font-family: Arial, sans-serif; font-size: 10px; fill: black; font-weight: bold;">Ballet_(music)</tspan></text><text x="731" y="76.9658119658119" text-anchor="end"><tspan alignment-baseline="middle" x="731" style="font-family: Arial, sans-serif; font-size: 10px; fill: black; font-weight: bold;">Opera</tspan></text><text x="731" y="106.75213675213672" text-anchor="end"><tspan alignment-baseline="middle" x="731" style="font-family: Arial, sans-serif; font-size: 10px; fill: black; font-weight: bold;">Christmas_carol</tspan></text><text x="9" y="34.80769230769232" text-anchor="start"><tspan alignment-baseline="middle" x="9" style="font-family: Arial, sans-serif; font-size: 10px; fill: black; font-weight: bold;">'sadness'</tspan></text><text x="9" y="79.46581196581198" text-anchor="start"><tspan alignment-baseline="middle" x="9" style="font-family: Arial, sans-serif; font-size: 10px; fill: black; font-weight: bold;">'anger'</tspan></text><text x="9" y="129.08119658119656" text-anchor="start"><tspan alignment-baseline="middle" x="9" style="font-family: Arial, sans-serif; font-size: 10px; fill: black; font-weight: bold;">'love'</tspan></text><text x="9" y="178.69658119658118" text-anchor="start"><tspan alignment-baseline="middle" x="9" style="font-family: Arial, sans-serif; font-size: 10px; fill: black; font-weight: bold;">'fear'</tspan></text><text x="731" y="153.8888888888889" text-anchor="end"><tspan alignment-baseline="middle" x="731" style="font-family: Arial, sans-serif; font-size: 10px; fill: black; font-weight: bold;">Hymn</tspan></text><text x="731" y="233.2478632478633" text-anchor="end"><tspan alignment-baseline="middle" x="731" style="font-family: Arial, sans-serif; font-size: 10px; fill: black; font-weight: bold;">National_anthem</tspan></text><text x="731" y="359.7008547008548" text-anchor="end"><tspan alignment-baseline="middle" x="731" style="font-family: Arial, sans-serif; font-size: 10px; fill: black; font-weight: bold;">Popular_music</tspan></text><text x="731" y="530.769230769231" text-anchor="end"><tspan alignment-baseline="middle" x="731" style="font-family: Arial, sans-serif; font-size: 10px; fill: black; font-weight: bold;">Classical_music</tspan></text><text x="9" y="409.2521367521367" text-anchor="start"><tspan alignment-baseline="middle" x="9" style="font-family: Arial, sans-serif; font-size: 10px; fill: black; font-weight: bold;">'joy'</tspan></text></g><g><text x="2.5" y="3.5" text-anchor="middle" style="font-family: Arial, sans-serif; font-size: 12px; fill: rgb(123, 123, 123); font-weight: bold;">sentiment</text><text x="737.5" y="-4.000000000000114" text-anchor="middle" style="font-family: Arial, sans-serif; font-size: 12px; fill: rgb(123, 123, 123); font-weight: bold;">genre_label</text></g></g></svg>