<svg xmlns="http://www.w3.org/2000/svg" width="805" height="600"><rect width="805" height="600" x="0" y="0" fill="#FFFFFF" id="backgorund"/><g transform="translate(10,10)" id="visualization"><g><rect x="0" y="7.5" height="4.615384615384642" width="5" fill="black"><title>'surprise': 1</title></rect><rect x="780" y="0" height="9.230769230769283" width="5" fill="black"><title>Jazz: 2</title></rect><rect x="780" y="14.230769230769283" height="13.846153846153811" width="5" fill="black"><title>Blues: 3</title></rect><rect x="780" y="33.076923076923094" height="23.076923076923094" width="5" fill="black"><title>Ballet_(music): 5</title></rect><rect x="780" y="61.15384615384619" height="23.076923076923094" width="5" fill="black"><title>Opera: 5</title></rect><rect x="780" y="89.23076923076928" height="23.076923076923094" width="5" fill="black"><title>Christmas_carol: 5</title></rect><rect x="0" y="17.11538461538464" height="32.30769230769221" width="5" fill="black"><title>'sadness': 7</title></rect><rect x="0" y="54.42307692307685" height="41.53846153846155" width="5" fill="black"><title>'anger': 9</title></rect><rect x="0" y="100.9615384615384" height="41.53846153846155" width="5" fill="black"><title>'love': 9</title></rect><rect x="0" y="147.49999999999994" height="41.53846153846155" width="5" fill="black"><title>'fear': 9</title></rect><rect x="780" y="117.30769230769238" height="55.38461538461536" width="5" fill="black"><title>Hymn: 12</title></rect><rect x="780" y="177.69230769230774" height="83.0769230769231" width="5" fill="black"><title>National_anthem: 18</title></rect><rect x="780" y="265.76923076923083" height="143.07692307692304" width="5" fill="black"><title>Popular_music: 31</title></rect><rect x="780" y="413.84615384615387" height="166.15384615384613" width="5" fill="black"><title>Classical_music: 36</title></rect><rect x="0" y="194.0384615384615" height="378.4615384615385" width="5" fill="black"><title>'joy': 82</title></rect></g><g fill="none" stroke-opacity="1"><g style="mix-blend-mode: multiply;"><path d="M5,500.96153846153834C392.5,500.96153846153834,392.5,508.46153846153857,780,508.46153846153857" stroke="#2ca02c" stroke-width="143.07692307692307"/><title>'joy' → Classical_music: 31</title></g><g style="mix-blend-mode: multiply;"><path d="M5,84.42307692307683C392.5,84.42307692307683,392.5,277.3076923076924,780,277.3076923076924" stroke="#1f77b4" stroke-width="13.846153846153845"/><title>'anger' → Popular_music: 3</title></g><g style="mix-blend-mode: multiply;"><path d="M5,9.807692307692307C392.5,9.807692307692307,392.5,180.00000000000006,780,180.00000000000006" stroke="#8c564b" stroke-width="4.615384615384615"/><title>'surprise' → National_anthem: 1</title></g><g style="mix-blend-mode: multiply;"><path d="M5,126.34615384615377C392.5,126.34615384615377,392.5,295.7692307692309,780,295.7692307692309" stroke="#d62728" stroke-width="23.076923076923073"/><title>'love' → Popular_music: 5</title></g><g style="mix-blend-mode: multiply;"><path d="M5,44.80769230769233C392.5,44.80769230769233,392.5,418.4615384615385,780,418.4615384615385" stroke="#9467bd" stroke-width="9.23076923076923"/><title>'sadness' → Classical_music: 2</title></g><g style="mix-blend-mode: multiply;"><path d="M5,203.26923076923072C392.5,203.26923076923072,392.5,46.923076923076934,780,46.923076923076934" stroke="#2ca02c" stroke-width="18.46153846153846"/><title>'joy' → Ballet_(music): 4</title></g><g style="mix-blend-mode: multiply;"><path d="M5,140.19230769230762C392.5,140.19230769230762,392.5,430.00000000000006,780,430.00000000000006" stroke="#d62728" stroke-width="4.615384615384615"/><title>'love' → Classical_music: 1</title></g><g style="mix-blend-mode: multiply;"><path d="M5,383.26923076923066C392.5,383.26923076923066,392.5,362.6923076923078,780,362.6923076923078" stroke="#2ca02c" stroke-width="92.30769230769229"/><title>'joy' → Popular_music: 20</title></g><g style="mix-blend-mode: multiply;"><path d="M5,304.80769230769226C392.5,304.80769230769226,392.5,228.4615384615385,780,228.4615384615385" stroke="#2ca02c" stroke-width="64.61538461538461"/><title>'joy' → National_anthem: 14</title></g><g style="mix-blend-mode: multiply;"><path d="M5,258.6538461538461C392.5,258.6538461538461,392.5,158.8461538461539,780,158.8461538461539" stroke="#2ca02c" stroke-width="27.69230769230769"/><title>'joy' → Hymn: 6</title></g><g style="mix-blend-mode: multiply;"><path d="M5,24.038461538461565C392.5,24.038461538461565,392.5,124.2307692307693,780,124.2307692307693" stroke="#9467bd" stroke-width="13.846153846153845"/><title>'sadness' → Hymn: 3</title></g><g style="mix-blend-mode: multiply;"><path d="M5,219.42307692307688C392.5,219.42307692307688,392.5,77.30769230769234,780,77.30769230769234" stroke="#2ca02c" stroke-width="13.846153846153845"/><title>'joy' → Opera: 3</title></g><g style="mix-blend-mode: multiply;"><path d="M5,235.576923076923C392.5,235.576923076923,392.5,103.07692307692312,780,103.07692307692312" stroke="#2ca02c" stroke-width="18.46153846153846"/><title>'joy' → Christmas_carol: 4</title></g><g style="mix-blend-mode: multiply;"><path d="M5,179.80769230769224C392.5,179.80769230769224,392.5,311.9230769230771,780,311.9230769230771" stroke="#ff7f0e" stroke-width="9.23076923076923"/><title>'fear' → Popular_music: 2</title></g><g style="mix-blend-mode: multiply;"><path d="M5,72.8846153846153C392.5,72.8846153846153,392.5,135.76923076923083,780,135.76923076923083" stroke="#1f77b4" stroke-width="9.23076923076923"/><title>'anger' → Hymn: 2</title></g><g style="mix-blend-mode: multiply;"><path d="M5,149.80769230769226C392.5,149.80769230769226,392.5,6.9230769230769225,780,6.9230769230769225" stroke="#ff7f0e" stroke-width="4.615384615384615"/><title>'fear' → Jazz: 1</title></g><g style="mix-blend-mode: multiply;"><path d="M5,65.96153846153838C392.5,65.96153846153838,392.5,91.53846153846159,780,91.53846153846159" stroke="#1f77b4" stroke-width="4.615384615384615"/><title>'anger' → Christmas_carol: 1</title></g><g style="mix-blend-mode: multiply;"><path d="M5,103.2692307692307C392.5,103.2692307692307,392.5,35.3846153846154,780,35.3846153846154" stroke="#d62728" stroke-width="4.615384615384615"/><title>'love' → Ballet_(music): 1</title></g><g style="mix-blend-mode: multiply;"><path d="M5,165.9615384615384C392.5,165.9615384615384,392.5,65.7692307692308,780,65.7692307692308" stroke="#ff7f0e" stroke-width="9.23076923076923"/><title>'fear' → Opera: 2</title></g><g style="mix-blend-mode: multiply;"><path d="M5,56.730769230769155C392.5,56.730769230769155,392.5,2.3076923076923075,780,2.3076923076923075" stroke="#1f77b4" stroke-width="4.615384615384615"/><title>'anger' → Jazz: 1</title></g><g style="mix-blend-mode: multiply;"><path d="M5,93.65384615384606C392.5,93.65384615384606,392.5,425.3846153846154,780,425.3846153846154" stroke="#1f77b4" stroke-width="4.615384615384615"/><title>'anger' → Classical_music: 1</title></g><g style="mix-blend-mode: multiply;"><path d="M5,156.73076923076917C392.5,156.73076923076917,392.5,23.46153846153851,780,23.46153846153851" stroke="#ff7f0e" stroke-width="9.23076923076923"/><title>'fear' → Blues: 2</title></g><g style="mix-blend-mode: multiply;"><path d="M5,186.73076923076917C392.5,186.73076923076917,392.5,434.6153846153847,780,434.6153846153847" stroke="#ff7f0e" stroke-width="4.615384615384615"/><title>'fear' → Classical_music: 1</title></g><g style="mix-blend-mode: multiply;"><path d="M5,61.34615384615377C392.5,61.34615384615377,392.5,16.53846153846159,780,16.53846153846159" stroke="#1f77b4" stroke-width="4.615384615384615"/><title>'anger' → Blues: 1</title></g><g style="mix-blend-mode: multiply;"><path d="M5,172.88461538461533C392.5,172.88461538461533,392.5,142.69230769230776,780,142.69230769230776" stroke="#ff7f0e" stroke-width="4.615384615384615"/><title>'fear' → Hymn: 1</title></g><g style="mix-blend-mode: multiply;"><path d="M5,33.269230769230795C392.5,33.269230769230795,392.5,184.61538461538467,780,184.61538461538467" stroke="#9467bd" stroke-width="4.615384615384615"/><title>'sadness' → National_anthem: 1</title></g><g style="mix-blend-mode: multiply;"><path d="M5,110.19230769230762C392.5,110.19230769230762,392.5,191.53846153846158,780,191.53846153846158" stroke="#d62728" stroke-width="9.23076923076923"/><title>'love' → National_anthem: 2</title></g><g style="mix-blend-mode: multiply;"><path d="M5,37.88461538461541C392.5,37.88461538461541,392.5,268.07692307692315,780,268.07692307692315" stroke="#9467bd" stroke-width="4.615384615384615"/><title>'sadness' → Popular_music: 1</title></g></g><g><text x="9" y="9.80769230769232" text-anchor="start"><tspan alignment-baseline="middle" x="9" style="font-family: Arial, sans-serif; font-size: 10px; fill: black; font-weight: bold;">'surprise'</tspan></text><text x="776" y="4.615384615384642" text-anchor="end"><tspan alignment-baseline="middle" x="776" style="font-family: Arial, sans-serif; font-size: 10px; fill: black; font-weight: bold;">Jazz</tspan></text><text x="776" y="21.15384615384619" text-anchor="end"><tspan alignment-baseline="middle" x="776" style="font-family: Arial, sans-serif; font-size: 10px; fill: black; font-weight: bold;">Blues</tspan></text><text x="776" y="44.61538461538464" text-anchor="end"><tspan alignment-baseline="middle" x="776" style="font-family: Arial, sans-serif; font-size: 10px; fill: black; font-weight: bold;">Ballet_(music)</tspan></text><text x="776" y="72.69230769230774" text-anchor="end"><tspan alignment-baseline="middle" x="776" style="font-family: Arial, sans-serif; font-size: 10px; fill: black; font-weight: bold;">Opera</tspan></text><text x="776" y="100.76923076923083" text-anchor="end"><tspan alignment-baseline="middle" x="776" style="font-family: Arial, sans-serif; font-size: 10px; fill: black; font-weight: bold;">Christmas_carol</tspan></text><text x="9" y="33.269230769230745" text-anchor="start"><tspan alignment-baseline="middle" x="9" style="font-family: Arial, sans-serif; font-size: 10px; fill: black; font-weight: bold;">'sadness'</tspan></text><text x="9" y="75.19230769230762" text-anchor="start"><tspan alignment-baseline="middle" x="9" style="font-family: Arial, sans-serif; font-size: 10px; fill: black; font-weight: bold;">'anger'</tspan></text><text x="9" y="121.73076923076917" text-anchor="start"><tspan alignment-baseline="middle" x="9" style="font-family: Arial, sans-serif; font-size: 10px; fill: black; font-weight: bold;">'love'</tspan></text><text x="9" y="168.26923076923072" text-anchor="start"><tspan alignment-baseline="middle" x="9" style="font-family: Arial, sans-serif; font-size: 10px; fill: black; font-weight: bold;">'fear'</tspan></text><text x="776" y="145.00000000000006" text-anchor="end"><tspan alignment-baseline="middle" x="776" style="font-family: Arial, sans-serif; font-size: 10px; fill: black; font-weight: bold;">Hymn</tspan></text><text x="776" y="219.23076923076928" text-anchor="end"><tspan alignment-baseline="middle" x="776" style="font-family: Arial, sans-serif; font-size: 10px; fill: black; font-weight: bold;">National_anthem</tspan></text><text x="776" y="337.3076923076924" text-anchor="end"><tspan alignment-baseline="middle" x="776" style="font-family: Arial, sans-serif; font-size: 10px; fill: black; font-weight: bold;">Popular_music</tspan></text><text x="776" y="496.9230769230769" text-anchor="end"><tspan alignment-baseline="middle" x="776" style="font-family: Arial, sans-serif; font-size: 10px; fill: black; font-weight: bold;">Classical_music</tspan></text><text x="9" y="383.2692307692307" text-anchor="start"><tspan alignment-baseline="middle" x="9" style="font-family: Arial, sans-serif; font-size: 10px; fill: black; font-weight: bold;">'joy'</tspan></text></g><g><text x="2.5" y="3.5" text-anchor="middle" style="font-family: Arial, sans-serif; font-size: 12px; fill: rgb(123, 123, 123); font-weight: bold;">sentiment</text><text x="782.5" y="-4" text-anchor="middle" style="font-family: Arial, sans-serif; font-size: 12px; fill: rgb(123, 123, 123); font-weight: bold;">genre_label</text></g></g></svg>