<svg xmlns="http://www.w3.org/2000/svg" width="850" height="750"><rect width="850" height="750" x="0" y="0" fill="#FFFFFF" id="backgorund"/><g transform="translate(30,20)" id="visualization"><g><rect x="0" y="7.500000000000057" height="5.81196581196582" width="5" fill="black"><title>'surprise': 1</title></rect><rect x="780" y="0" height="11.62393162393164" width="5" fill="black"><title>Jazz: 2</title></rect><rect x="780" y="16.62393162393164" height="17.43589743589746" width="5" fill="black"><title>Blues: 3</title></rect><rect x="780" y="39.0598290598291" height="29.059829059829156" width="5" fill="black"><title>Ballet_(music): 5</title></rect><rect x="780" y="73.11965811965825" height="29.0598290598291" width="5" fill="black"><title>Opera: 5</title></rect><rect x="780" y="107.17948717948735" height="29.0598290598291" width="5" fill="black"><title>Christmas_carol: 5</title></rect><rect x="0" y="18.311965811965877" height="40.68376068376074" width="5" fill="black"><title>'sadness': 7</title></rect><rect x="0" y="63.995726495726615" height="52.307692307692264" width="5" fill="black"><title>'anger': 9</title></rect><rect x="0" y="121.30341880341888" height="52.307692307692264" width="5" fill="black"><title>'love': 9</title></rect><rect x="0" y="178.61111111111114" height="52.307692307692264" width="5" fill="black"><title>'fear': 9</title></rect><rect x="780" y="141.23931623931645" height="69.74358974358961" width="5" fill="black"><title>Hymn: 12</title></rect><rect x="780" y="215.98290598290606" height="104.61538461538464" width="5" fill="black"><title>National_anthem: 18</title></rect><rect x="780" y="325.5982905982907" height="180.17094017094013" width="5" fill="black"><title>Popular_music: 31</title></rect><rect x="780" y="510.76923076923083" height="209.23076923076917" width="5" fill="black"><title>Classical_music: 36</title></rect><rect x="0" y="235.9188034188034" height="476.5811965811966" width="5" fill="black"><title>'joy': 82</title></rect></g><g fill="none" stroke-opacity="0.9"><g style="mix-blend-mode: multiply;"><path d="M5,622.4145299145299C392.5,622.4145299145299,392.5,629.91452991453,780,629.91452991453" stroke="#2ca02c" stroke-width="180.17094017094016"/><title>'joy' → Classical_music: 31</title></g><g style="mix-blend-mode: multiply;"><path d="M5,101.77350427350437C392.5,101.77350427350437,392.5,340.12820512820525,780,340.12820512820525" stroke="#1f77b4" stroke-width="17.435897435897434"/><title>'anger' → Popular_music: 3</title></g><g style="mix-blend-mode: multiply;"><path d="M5,10.405982905982963C392.5,10.405982905982963,392.5,218.88888888888897,780,218.88888888888897" stroke="#8c564b" stroke-width="5.811965811965812"/><title>'surprise' → National_anthem: 1</title></g><g style="mix-blend-mode: multiply;"><path d="M5,153.26923076923083C392.5,153.26923076923083,392.5,363.37606837606853,780,363.37606837606853" stroke="#d62728" stroke-width="29.05982905982906"/><title>'love' → Popular_music: 5</title></g><g style="mix-blend-mode: multiply;"><path d="M5,53.183760683760745C392.5,53.183760683760745,392.5,516.5811965811967,780,516.5811965811967" stroke="#9467bd" stroke-width="11.623931623931623"/><title>'sadness' → Classical_music: 2</title></g><g style="mix-blend-mode: multiply;"><path d="M5,247.54273504273502C392.5,247.54273504273502,392.5,56.49572649572654,780,56.49572649572654" stroke="#2ca02c" stroke-width="23.247863247863247"/><title>'joy' → Ballet_(music): 4</title></g><g style="mix-blend-mode: multiply;"><path d="M5,170.7051282051283C392.5,170.7051282051283,392.5,531.1111111111112,780,531.1111111111112" stroke="#d62728" stroke-width="5.811965811965812"/><title>'love' → Classical_music: 1</title></g><g style="mix-blend-mode: multiply;"><path d="M5,474.2094017094017C392.5,474.2094017094017,392.5,447.6495726495728,780,447.6495726495728" stroke="#2ca02c" stroke-width="116.23931623931624"/><title>'joy' → Popular_music: 20</title></g><g style="mix-blend-mode: multiply;"><path d="M5,375.40598290598285C392.5,375.40598290598285,392.5,279.91452991453,780,279.91452991453" stroke="#2ca02c" stroke-width="81.36752136752136"/><title>'joy' → National_anthem: 14</title></g><g style="mix-blend-mode: multiply;"><path d="M5,317.28632478632477C392.5,317.28632478632477,392.5,193.54700854700874,780,193.54700854700874" stroke="#2ca02c" stroke-width="34.87179487179487"/><title>'joy' → Hymn: 6</title></g><g style="mix-blend-mode: multiply;"><path d="M5,27.029914529914592C392.5,27.029914529914592,392.5,149.95726495726518,780,149.95726495726518" stroke="#9467bd" stroke-width="17.435897435897434"/><title>'sadness' → Hymn: 3</title></g><g style="mix-blend-mode: multiply;"><path d="M5,267.88461538461536C392.5,267.88461538461536,392.5,93.4615384615386,780,93.4615384615386" stroke="#2ca02c" stroke-width="17.435897435897434"/><title>'joy' → Opera: 3</title></g><g style="mix-blend-mode: multiply;"><path d="M5,288.2264957264957C392.5,288.2264957264957,392.5,124.61538461538478,780,124.61538461538478" stroke="#2ca02c" stroke-width="23.247863247863247"/><title>'joy' → Christmas_carol: 4</title></g><g style="mix-blend-mode: multiply;"><path d="M5,219.29487179487182C392.5,219.29487179487182,392.5,383.71794871794884,780,383.71794871794884" stroke="#ff7f0e" stroke-width="11.623931623931623"/><title>'fear' → Popular_music: 2</title></g><g style="mix-blend-mode: multiply;"><path d="M5,87.24358974358984C392.5,87.24358974358984,392.5,164.4871794871797,780,164.4871794871797" stroke="#1f77b4" stroke-width="11.623931623931623"/><title>'anger' → Hymn: 2</title></g><g style="mix-blend-mode: multiply;"><path d="M5,181.51709401709405C392.5,181.51709401709405,392.5,8.717948717948717,780,8.717948717948717" stroke="#ff7f0e" stroke-width="5.811965811965812"/><title>'fear' → Jazz: 1</title></g><g style="mix-blend-mode: multiply;"><path d="M5,78.52564102564114C392.5,78.52564102564114,392.5,110.08547008547026,780,110.08547008547026" stroke="#1f77b4" stroke-width="5.811965811965812"/><title>'anger' → Christmas_carol: 1</title></g><g style="mix-blend-mode: multiply;"><path d="M5,124.20940170940179C392.5,124.20940170940179,392.5,41.965811965812,780,41.965811965812" stroke="#d62728" stroke-width="5.811965811965812"/><title>'love' → Ballet_(music): 1</title></g><g style="mix-blend-mode: multiply;"><path d="M5,201.8589743589744C392.5,201.8589743589744,392.5,78.93162393162406,780,78.93162393162406" stroke="#ff7f0e" stroke-width="11.623931623931623"/><title>'fear' → Opera: 2</title></g><g style="mix-blend-mode: multiply;"><path d="M5,66.90170940170952C392.5,66.90170940170952,392.5,2.905982905982906,780,2.905982905982906" stroke="#1f77b4" stroke-width="5.811965811965812"/><title>'anger' → Jazz: 1</title></g><g style="mix-blend-mode: multiply;"><path d="M5,113.397435897436C392.5,113.397435897436,392.5,525.2991452991454,780,525.2991452991454" stroke="#1f77b4" stroke-width="5.811965811965812"/><title>'anger' → Classical_music: 1</title></g><g style="mix-blend-mode: multiply;"><path d="M5,190.23504273504278C392.5,190.23504273504278,392.5,28.247863247863265,780,28.247863247863265" stroke="#ff7f0e" stroke-width="11.623931623931623"/><title>'fear' → Blues: 2</title></g><g style="mix-blend-mode: multiply;"><path d="M5,228.01282051282053C392.5,228.01282051282053,392.5,536.923076923077,780,536.923076923077" stroke="#ff7f0e" stroke-width="5.811965811965812"/><title>'fear' → Classical_music: 1</title></g><g style="mix-blend-mode: multiply;"><path d="M5,72.71367521367533C392.5,72.71367521367533,392.5,19.529914529914546,780,19.529914529914546" stroke="#1f77b4" stroke-width="5.811965811965812"/><title>'anger' → Blues: 1</title></g><g style="mix-blend-mode: multiply;"><path d="M5,210.5769230769231C392.5,210.5769230769231,392.5,173.2051282051284,780,173.2051282051284" stroke="#ff7f0e" stroke-width="5.811965811965812"/><title>'fear' → Hymn: 1</title></g><g style="mix-blend-mode: multiply;"><path d="M5,38.65384615384621C392.5,38.65384615384621,392.5,224.7008547008548,780,224.7008547008548" stroke="#9467bd" stroke-width="5.811965811965812"/><title>'sadness' → National_anthem: 1</title></g><g style="mix-blend-mode: multiply;"><path d="M5,132.9273504273505C392.5,132.9273504273505,392.5,233.41880341880352,780,233.41880341880352" stroke="#d62728" stroke-width="11.623931623931623"/><title>'love' → National_anthem: 2</title></g><g style="mix-blend-mode: multiply;"><path d="M5,44.46581196581202C392.5,44.46581196581202,392.5,328.5042735042736,780,328.5042735042736" stroke="#9467bd" stroke-width="5.811965811965812"/><title>'sadness' → Popular_music: 1</title></g></g><g><text x="9" y="10.405982905982967" text-anchor="start"><tspan alignment-baseline="middle" x="9" style="font-family: Arial, sans-serif; font-size: 10px; fill: black; font-weight: bold;">'surprise'</tspan></text><text x="776" y="5.81196581196582" text-anchor="end"><tspan alignment-baseline="middle" x="776" style="font-family: Arial, sans-serif; font-size: 10px; fill: black; font-weight: bold;">Jazz</tspan></text><text x="776" y="25.34188034188037" text-anchor="end"><tspan alignment-baseline="middle" x="776" style="font-family: Arial, sans-serif; font-size: 10px; fill: black; font-weight: bold;">Blues</tspan></text><text x="776" y="53.58974358974368" text-anchor="end"><tspan alignment-baseline="middle" x="776" style="font-family: Arial, sans-serif; font-size: 10px; fill: black; font-weight: bold;">Ballet_(music)</tspan></text><text x="776" y="87.6495726495728" text-anchor="end"><tspan alignment-baseline="middle" x="776" style="font-family: Arial, sans-serif; font-size: 10px; fill: black; font-weight: bold;">Opera</tspan></text><text x="776" y="121.7094017094019" text-anchor="end"><tspan alignment-baseline="middle" x="776" style="font-family: Arial, sans-serif; font-size: 10px; fill: black; font-weight: bold;">Christmas_carol</tspan></text><text x="9" y="38.653846153846246" text-anchor="start"><tspan alignment-baseline="middle" x="9" style="font-family: Arial, sans-serif; font-size: 10px; fill: black; font-weight: bold;">'sadness'</tspan></text><text x="9" y="90.14957264957275" text-anchor="start"><tspan alignment-baseline="middle" x="9" style="font-family: Arial, sans-serif; font-size: 10px; fill: black; font-weight: bold;">'anger'</tspan></text><text x="9" y="147.457264957265" text-anchor="start"><tspan alignment-baseline="middle" x="9" style="font-family: Arial, sans-serif; font-size: 10px; fill: black; font-weight: bold;">'love'</tspan></text><text x="9" y="204.76495726495727" text-anchor="start"><tspan alignment-baseline="middle" x="9" style="font-family: Arial, sans-serif; font-size: 10px; fill: black; font-weight: bold;">'fear'</tspan></text><text x="776" y="176.11111111111126" text-anchor="end"><tspan alignment-baseline="middle" x="776" style="font-family: Arial, sans-serif; font-size: 10px; fill: black; font-weight: bold;">Hymn</tspan></text><text x="776" y="268.2905982905984" text-anchor="end"><tspan alignment-baseline="middle" x="776" style="font-family: Arial, sans-serif; font-size: 10px; fill: black; font-weight: bold;">National_anthem</tspan></text><text x="776" y="415.68376068376074" text-anchor="end"><tspan alignment-baseline="middle" x="776" style="font-family: Arial, sans-serif; font-size: 10px; fill: black; font-weight: bold;">Popular_music</tspan></text><text x="776" y="615.3846153846155" text-anchor="end"><tspan alignment-baseline="middle" x="776" style="font-family: Arial, sans-serif; font-size: 10px; fill: black; font-weight: bold;">Classical_music</tspan></text><text x="9" y="474.20940170940173" text-anchor="start"><tspan alignment-baseline="middle" x="9" style="font-family: Arial, sans-serif; font-size: 10px; fill: black; font-weight: bold;">'joy'</tspan></text></g><g><text x="2.5" y="3.500000000000057" text-anchor="middle" style="font-family: Arial, sans-serif; font-size: 12px; fill: rgb(123, 123, 123); font-weight: bold;">sentiment</text><text x="782.5" y="-4" text-anchor="middle" style="font-family: Arial, sans-serif; font-size: 12px; fill: rgb(123, 123, 123); font-weight: bold;">genre_label</text></g></g></svg>